<svg xmlns="http://www.w3.org/2000/svg" width="1200" height="760" viewBox="0 0 1200 760" role="img" aria-label="FIFA World Cup 1958 Sweden illustrated history card">
  <defs>
    <linearGradient id="bg" x1="0" x2="1" y1="0" y2="1"><stop stop-color="#07111f"/><stop offset="0.58" stop-color="#0f1f36"/><stop offset="1" stop-color="#00d084" stop-opacity="0.64"/></linearGradient>
    <radialGradient id="glow" cx="72%" cy="24%" r="54%"><stop stop-color="#35b7ff" stop-opacity="0.62"/><stop offset="1" stop-color="#35b7ff" stop-opacity="0"/></radialGradient>
    <filter id="shadow" x="-20%" y="-20%" width="140%" height="140%"><feDropShadow dx="0" dy="28" stdDeviation="22" flood-color="#000" flood-opacity="0.38"/></filter>
    <pattern id="grid" width="54" height="54" patternUnits="userSpaceOnUse"><path d="M 54 0 L 0 0 0 54" fill="none" stroke="#fff" stroke-opacity="0.08" stroke-width="1"/></pattern>
  </defs>
  <rect width="1200" height="760" fill="url(#bg)"/>
  <rect width="1200" height="760" fill="url(#glow)"/>
  <rect width="1200" height="760" fill="url(#grid)"/>
  <path d="M0 552 C214 504 295 603 453 552 C631 495 708 374 904 411 C1052 439 1110 370 1200 317 L1200 760 L0 760Z" fill="#ffffff" opacity="0.07"/>
  <g transform="translate(760 150)" filter="url(#shadow)">
    <circle cx="150" cy="150" r="142" fill="#fff" opacity="0.12"/>
    <circle cx="150" cy="150" r="96" fill="none" stroke="#fff" stroke-width="18" stroke-opacity="0.34"/>
    <path d="M150 22 A128 128 0 0 1 278 150" fill="none" stroke="#00d084" stroke-width="18" stroke-linecap="round"/>
    <path d="M150 278 A128 128 0 0 1 22 150" fill="none" stroke="#35b7ff" stroke-width="18" stroke-linecap="round"/>
    <path d="M86 150 H214 M150 86 V214" stroke="#fff" stroke-width="12" stroke-linecap="round" opacity="0.28"/>
  </g>
  <g transform="translate(86 104)">
    <text x="0" y="0" font-family="Inter, Arial, sans-serif" font-size="30" font-weight="800" fill="#00d084" letter-spacing="6">WORLD CUP ARCHIVE</text>
    <text x="0" y="132" font-family="Inter, Arial, sans-serif" font-size="132" font-weight="900" fill="#fff" letter-spacing="-8">1958</text>
    <text x="0" y="206" font-family="Inter, Arial, sans-serif" font-size="58" font-weight="850" fill="#fff" opacity="0.94">🇸🇪 Sweden</text>
    <rect x="0" y="250" width="650" height="112" rx="30" fill="#fff" opacity="0.11" stroke="#fff" stroke-opacity="0.18"/>
    <text x="34" y="296" font-family="Inter, Arial, sans-serif" font-size="24" font-weight="750" fill="#fff" opacity="0.7">Champion</text>
    <text x="34" y="340" font-family="Inter, Arial, sans-serif" font-size="38" font-weight="900" fill="#fff">Brazil</text>
    <rect x="0" y="394" width="312" height="96" rx="24" fill="#fff" opacity="0.11" stroke="#fff" stroke-opacity="0.14"/>
    <text x="28" y="435" font-family="Inter, Arial, sans-serif" font-size="22" font-weight="750" fill="#fff" opacity="0.68">Goals</text>
    <text x="28" y="474" font-family="Inter, Arial, sans-serif" font-size="34" font-weight="900" fill="#fff">126</text>
  </g>
  <g transform="translate(118 620)">
    <circle cx="0" cy="0" r="8" fill="#00d084"/>
    <circle cx="42" cy="0" r="8" fill="#35b7ff"/>
    <circle cx="84" cy="0" r="8" fill="#fff" opacity="0.6"/>
    <path d="M128 0 H990" stroke="#fff" stroke-opacity="0.18" stroke-width="2"/>
  </g>
</svg>